<?xml version="1.0" standalone="no"?>
<!DOCTYPE svg PUBLIC "-//W3C//DTD SVG 20010904//EN"
 "http://www.w3.org/TR/2001/REC-SVG-20010904/DTD/svg10.dtd">
<svg version="1.0" xmlns="http://www.w3.org/2000/svg"
 width="512.000000pt" height="512.000000pt" viewBox="0 0 512.000000 512.000000"
 preserveAspectRatio="xMidYMid meet">

<g transform="translate(0.000000,512.000000) scale(0.100000,-0.100000)"
fill="#000000" stroke="none">
<path d="M2515 5101 c-79 -36 -97 -76 -121 -269 -25 -204 -43 -226 -197 -249
-125 -19 -185 -48 -263 -130 -86 -91 -88 -90 -325 20 -163 77 -192 87 -241 87
-77 0 -150 -39 -197 -105 -30 -42 -36 -58 -39 -114 -3 -58 1 -80 37 -175 45
-119 49 -144 25 -153 -8 -3 -122 27 -252 66 -130 39 -253 71 -273 71 -19 0
-107 -14 -195 -30 -231 -45 -286 -76 -342 -198 -35 -77 -29 -162 18 -255 55
-110 85 -130 344 -240 126 -54 251 -113 278 -133 68 -51 123 -127 163 -228 40
-102 70 -148 193 -291 52 -60 103 -128 113 -150 25 -55 25 -156 -1 -214 -44
-96 -65 -214 -80 -456 -17 -271 -48 -402 -141 -606 -82 -180 -86 -286 -18
-420 56 -112 101 -145 405 -297 241 -120 281 -137 322 -136 61 1 123 35 157
86 14 21 31 38 38 38 6 0 86 -68 177 -150 127 -115 177 -154 218 -170 64 -24
193 -40 332 -40 120 0 164 15 217 71 43 46 55 81 54 166 -1 132 33 190 163
270 196 121 203 121 509 6 l232 -88 115 1 c89 0 139 7 222 27 174 43 226 77
351 227 120 144 148 216 126 319 -15 73 -59 131 -143 190 -41 29 -77 60 -80
68 -8 19 -56 232 -56 245 0 5 29 37 64 71 110 107 114 190 15 344 -19 30 -20
38 -10 103 8 51 8 83 1 111 -20 75 -99 139 -172 139 -37 0 -58 15 -58 40 0 28
190 444 214 468 17 17 40 26 88 32 83 10 127 31 177 85 53 58 67 112 81 320
11 162 13 172 43 225 28 47 32 65 32 125 0 59 -5 78 -28 118 -47 79 -85 99
-279 148 -140 34 -178 47 -198 69 -14 14 -55 58 -92 98 -81 87 -114 103 -271
131 -151 27 -194 44 -351 138 -112 68 -140 90 -215 173 -235 258 -295 309
-430 364 -140 57 -372 76 -456 37z m305 -147 c160 -37 225 -86 468 -351 57
-62 116 -120 132 -130 l30 -17 0 -393 0 -392 23 -25 c34 -38 68 -42 103 -13
l29 25 3 345 3 346 82 -39 c62 -30 119 -47 230 -69 l148 -28 91 -97 c50 -53
107 -105 128 -116 20 -10 106 -35 189 -55 216 -52 236 -76 173 -206 -29 -59
-32 -78 -47 -257 -10 -132 -20 -201 -30 -216 -19 -29 -56 -46 -103 -46 -75 -1
-165 -51 -203 -114 -10 -17 -65 -134 -121 -261 -88 -196 -103 -237 -103 -281
1 -86 71 -169 151 -180 93 -13 87 -4 79 -99 -9 -107 -2 -142 39 -202 56 -81
56 -84 -16 -155 -65 -64 -88 -110 -88 -176 0 -35 44 -245 60 -288 15 -38 61
-86 133 -137 103 -73 113 -130 41 -227 -66 -86 -140 -166 -177 -189 -41 -25
-222 -71 -307 -78 -69 -6 -94 1 -267 67 l-83 32 -2 1245 -3 1245 -29 25 c-35
29 -69 25 -103 -13 l-23 -25 0 -1211 c0 -1148 -1 -1210 -17 -1203 -41 16 -122
22 -173 14 -97 -15 -332 -147 -394 -220 -57 -67 -88 -151 -94 -252 -7 -134 -2
-131 -187 -123 -82 3 -167 11 -189 17 -27 7 -78 47 -175 133 l-136 123 -5 535
c-5 572 -4 559 -55 578 -13 5 -44 55 -87 141 -124 250 -196 462 -243 713 -40
219 -49 360 -42 696 7 366 30 616 78 840 l10 45 89 0 90 0 0 -1118 0 -1118 26
-26 c20 -20 31 -24 57 -19 18 4 41 16 52 27 20 19 20 34 23 1214 l2 1195 25
16 c14 9 69 22 122 30 224 33 280 98 314 362 11 89 25 160 32 164 21 13 179 8
247 -8z"/>
<path d="M4682 755 c-45 -20 -175 -139 -200 -184 -34 -61 -85 -258 -77 -299
15 -81 113 -213 185 -250 107 -54 237 3 271 118 7 24 32 58 67 92 61 59 82 99
82 156 0 51 -73 266 -104 307 -50 65 -150 92 -224 60z m91 -147 c21 -16 89
-205 82 -227 -3 -9 -25 -34 -50 -54 -44 -37 -85 -100 -85 -131 0 -24 -40 -47
-61 -35 -29 15 -99 113 -99 138 0 12 12 62 27 112 25 83 31 93 89 149 34 33
66 60 71 60 5 0 17 -6 26 -12z"/>
</g>
</svg>
